<?xml version="1.0" standalone="no"?><!DOCTYPE svg PUBLIC "-//W3C//DTD SVG 1.1//EN" "http://www.w3.org/Graphics/SVG/1.1/DTD/svg11.dtd"><svg t="1631861297310" class="icon" viewBox="0 0 1448 1024" version="1.1" xmlns="http://www.w3.org/2000/svg" p-id="1230" xmlns:xlink="http://www.w3.org/1999/xlink" width="282.8125" height="200"><defs><style type="text/css"></style></defs><path d="M773.267249 475.801855H459.683591c-15.662411 0-28.359199 12.695068-28.359199 28.357478s12.696788 28.359199 28.359199 28.359199h313.585378c15.669292 0 28.36608-12.696788 28.36608-28.359199s-12.696788-28.357479-28.3678-28.357478zM773.267249 592.230077H459.683591c-15.662411 0-28.359199 12.698508-28.359199 28.366079 0 15.669292 12.696788 28.36608 28.359199 28.36608h313.585378c15.669292 0 28.36608-12.696788 28.36608-28.36608 0-15.667572-12.696788-28.36608-28.3678-28.366079zM773.267249 708.684102H459.683591c-15.662411 0-28.359199 12.696788-28.359199 28.366079 0 15.667572 12.696788 28.36608 28.359199 28.36608h313.585378c15.669292 0 28.36608-12.698508 28.36608-28.36608 0-15.671012-12.696788-28.36608-28.3678-28.366079z" fill="" p-id="1231"></path><path d="M870.391399 224.757748H362.573203c-41.222846 0-74.632549 33.407983-74.63255 74.630829v642.432361c0 41.222846 33.409703 74.632549 74.63255 74.632549h507.818196c41.222846 0 74.632549-33.409703 74.632549-74.632549V299.388577c0-41.222846-33.409703-74.630829-74.632549-74.630829z m20.902137 717.06319c0 11.530493-9.371644 20.902137-20.900417 20.902137h-507.819916c-11.523612 0-20.895256-9.371644-20.895256-20.902137V299.388577c0-11.521892 9.373364-20.895256 20.895256-20.895256h507.818196c11.528773 0 20.900417 9.373364 20.900417 20.895256v642.432361z" fill="" p-id="1232"></path><path d="M1059.46362 6.356135H551.647144c-55.966671 0-101.496896 45.530224-101.496895 101.496896v44.749254c0 14.838436 12.02591 26.864346 26.864346 26.864346 14.838436 0 26.864346-12.02591 26.864346-26.864346V107.853031c0-26.341406 21.428518-47.768203 47.768203-47.768204h507.818197c26.339686 0 47.766483 21.428518 47.766483 47.768204v642.432361c0 26.339686-21.426797 47.768203-47.766483 47.768203-14.840156 0-26.864346 12.02419-26.864347 26.864346 0 14.838436 12.02419 26.862626 26.864347 26.862626 55.971832 0 101.495175-45.521623 101.495175-101.495175V107.853031c-0.00172-55.966671-45.523344-101.496896-101.496896-101.496896z" fill="" p-id="1233"></path></svg>