<?xml version="1.0" standalone="no"?><!DOCTYPE svg PUBLIC "-//W3C//DTD SVG 1.1//EN" "http://www.w3.org/Graphics/SVG/1.1/DTD/svg11.dtd"><svg t="1631513704107" class="icon" viewBox="0 0 1024 1024" version="1.1" xmlns="http://www.w3.org/2000/svg" p-id="2964" xmlns:xlink="http://www.w3.org/1999/xlink" width="200" height="200"><defs><style type="text/css"></style></defs><path d="M519.131429 12.544c-108.507429-0.256-197.851429 80.457143-201.910858 182.491429H62.098286C33.865143 194.998857 10.971429 216.429714 10.971429 242.944s22.857143 47.981714 51.090285 47.981714h56.868572v538.038857c-7.789714 92.964571 65.170286 174.665143 163.949714 183.588572h461.824c98.779429-8.630857 171.885714-90.477714 163.986286-183.588572V291.657143h51.346285c28.233143 0 51.090286-21.430857 51.090286-47.981714 0-26.514286-22.857143-47.945143-51.090286-47.945143h-239.433142C717.238857 93.403429 627.931429 12.288 519.131429 12.544z m-105.545143 182.491429c3.803429-52.077714 49.810286-92.452571 105.252571-92.452572 55.478857 0 101.449143 40.374857 105.252572 92.416H413.622857zM282.916571 922.514286c-32.182857 0-67.437714-38.509714-67.437714-93.549715V291.657143h596.845714v538.038857c0 55.04-35.254857 93.549714-67.437714 93.549714H282.916571v-0.731428z m69.010286-115.273143c26.221714-2.852571 45.275429-24.868571 42.898286-49.554286V475.428571a40.228571 40.228571 0 0 0-18.358857-42.605714 46.409143 46.409143 0 0 0-48.969143 0 40.009143 40.009143 0 0 0-18.322286 42.605714v282.331429c-2.706286 24.722286 16.493714 46.848 42.752 49.554286z m155.501714 0c26.221714-2.852571 45.275429-24.868571 42.898286-49.554286V475.428571a40.228571 40.228571 0 0 0-18.358857-42.605714 46.409143 46.409143 0 0 0-48.969143 0 40.009143 40.009143 0 0 0-18.322286 42.605714v282.331429c-2.56 24.722286 16.493714 46.701714 42.752 49.554286z m163.254858 0c26.221714-2.852571 45.275429-24.868571 42.898285-49.554286V475.428571a40.228571 40.228571 0 0 0-18.358857-42.605714 46.409143 46.409143 0 0 0-48.969143 0 40.009143 40.009143 0 0 0-18.322285 42.605714v282.331429c-2.706286 24.868571 16.493714 46.994286 42.752 49.554286z" p-id="2965" fill="#2c2c2c"></path></svg>