<?xml version="1.0" standalone="no"?><!DOCTYPE svg PUBLIC "-//W3C//DTD SVG 1.1//EN" "http://www.w3.org/Graphics/SVG/1.1/DTD/svg11.dtd"><svg t="1631177836492" class="icon" viewBox="0 0 1024 1024" version="1.1" xmlns="http://www.w3.org/2000/svg" p-id="1275" xmlns:xlink="http://www.w3.org/1999/xlink" width="200" height="200"><defs><style type="text/css"></style></defs><path d="M824 921H184c-52.9 0-96-43.1-96-96V185c0-52.9 43.1-96 96-96h640c52.9 0 96 43.1 96 96v640c0 52.9-43.1 96-96 96zM184 153c-17.6 0-32 14.4-32 32v640c0 17.6 14.4 32 32 32h640c17.6 0 32-14.4 32-32V185c0-17.6-14.4-32-32-32H184z" fill="#2c2c2c" p-id="1276"></path><path d="M285.9 750.9c-8.4 0-16.5-3.3-22.6-9.4-8.4-8.4-11.5-20.8-7.9-32.2l49.3-157.1c1.5-4.9 4.3-9.4 7.9-13l328.8-328.8c6-6 14.1-9.4 22.6-9.4s16.6 3.4 22.6 9.4l107.8 107.8c12.5 12.5 12.5 32.8 0 45.3L465.6 692.2c-3.6 3.6-8.1 6.4-13 7.9l-157.1 49.3c-3.2 1-6.4 1.5-9.6 1.5z m77.5-172L334.8 670l91.2-28.6 300.6-300.6-62.6-62.5-300.6 300.6z" fill="#2c2c2c" p-id="1277"></path><path d="M486.4 640.3c-8.2 0-16.4-3.1-22.6-9.4L374 541.1c-12.5-12.5-12.5-32.8 0-45.3s32.8-12.5 45.3 0l89.8 89.8c12.5 12.5 12.5 32.8 0 45.3-6.4 6.3-14.5 9.4-22.7 9.4z" fill="#2c2c2c" p-id="1278"></path></svg>