<?xml version="1.0" standalone="no"?><!DOCTYPE svg PUBLIC "-//W3C//DTD SVG 1.1//EN" "http://www.w3.org/Graphics/SVG/1.1/DTD/svg11.dtd"><svg t="1631870110507" class="icon" viewBox="0 0 1024 1024" version="1.1" xmlns="http://www.w3.org/2000/svg" p-id="807" xmlns:xlink="http://www.w3.org/1999/xlink" width="200" height="200"><defs><style type="text/css"></style></defs><path d="M868.6 751.4c-32.2-27.7-82-40.6-126.1-51.9-4.4-1.1-8.9-2.3-13.2-3.4 8.2-7.7 20.9-22.6 31-47.7 11.6-28.6-2.9-48.2-14.6-64-5.9-7.9-11.4-15.4-12.8-22.7-1.1-5.9-1-6.1 6-11.9 9.6-8.1 25.7-21.7 41.5-61.2 24.5-61.6 5.3-94.1-16.9-131.7-3.8-6.5-7.8-13.2-11.7-20.4-7.9-56.4-21.3-103.9-39.8-141.1-16.5-33.1-37.5-59.1-62.5-77.3-45.1-32.6-93.5-35.4-135.4-35.4-60.1 0-80.7 18.8-87.5 29.6-58.5 6.4-99.5 34.9-121.9 84.7-18.4 40.7-19.1 85.8-19.5 107.4 0 2.2-0.1 4.2-0.1 6-0.4 14.7-10 34.4-20.1 55.4-12.7 26.2-25.8 53.2-25.8 78.9 0 29.9 20.9 64.1 37.7 91.5 8.6 14 17.5 28.5 18.3 34.8 0.5 3.3-1.2 5.2-10.3 11.8-10.9 7.9-27.4 19.9-32.6 46.9-6.6 34.8 23.5 63.6 41.9 77.5-18.2 7-37.8 10.6-56.8 14.1-38.2 7-77.7 14.3-100.7 49.8-34.4 53.1-29.8 156.1-29.6 160.5l0.5 9.5h807.6l0.9-9c0.4-5.1 11.8-129.6-47.5-180.7zM271.9 633.6c3.7-19.2 14.4-27 24.7-34.5 9.2-6.6 20.5-14.9 18.4-30.7-1.4-10.5-10.1-24.7-21.1-42.6-15.5-25.3-34.8-56.8-34.8-81.1 0-21.1 12.1-46.1 23.8-70.2C294 351.6 304.5 330 305 311c0.1-1.8 0.1-3.9 0.1-6.2 1.2-69.7 15.8-163.6 128.7-173.1l7.7 0.3 1.1-7.6c1-2.3 11.7-21.6 71.3-21.6 64.8 0 185.3 0 218.1 238.4l0.2 1.8 0.9 1.6c4.4 8.1 8.7 15.5 13 22.6 21.9 37.2 36.4 61.7 15.5 114.2-13.9 34.9-27.1 46-35.8 53.3-7.9 6.7-16.1 13.6-12.7 31 2.3 11.8 9.4 21.5 16.4 30.8 12.1 16.3 19.2 27.2 12.2 44.5-13.4 33-31.2 44.9-31.4 44.9-1.6 1-2.9 2.4-3.7 4-20.5-6.1-38-12.8-48.1-21.8-28.7-25.4-48.3-39.3-56.8-45l-0.8-35c15-9.4 28.8-21.1 41.5-35.2 26.6-29.5 47.3-69.4 58.3-112.3 10.2-39.8 12.5-85-5.2-97.1-16.3-12.8-35.7-6.3-51.3-1.1-3.8 1.3-7.5 2.5-11 3.4-20.2-4.6-20.9-59.7-21.2-92.9-0.2-15.9-0.3-29.6-1.9-39.1-3-17.9-14.8-32.1-34.3-41.2-15.1-7.1-31.9-9.6-42.6-9.6-9.9 0-31.6 3.2-52.3 9.1-27.4 7.9-43.4 17.3-48.9 28.7-8.3 17.3-48 58.3-66.3 73.9-20.8 17.7-35.9 40.6-41.1 54.4-5.8 15.5-8.4 75.3-0.4 114.3 4.1 20.1 28.1 63 64.4 102.8 11.6 12.7 23.3 23.9 35.1 33.3-0.5 1.2-0.8 2.6-0.8 4v41.2c-13.5 10.8-62.5 49.1-108 72.7-9.9-6.3-48.8-33.6-43-63.8z m365.9 47.7l-64.4 89.4-48-43.4 59.3-80.4 53.1 34.4z m-125.4-85.6c-42.6 2.6-86.4-38.2-108.8-62.7-32.2-35.3-56-76-59.6-93.3-7.7-37.5-4.2-93.1-0.4-103.2 4.4-11.8 18-31.5 35.3-46.2 18.9-16 61.2-59 71.4-80.6 2-4.1 12.6-11.3 36.3-18.1 18.3-5.2 38.2-8.4 46.8-8.4 13.4 0 52.5 6.3 57.2 34.1 1.3 8 1.5 21.6 1.7 36 0.3 22.2 0.5 47.4 4.8 68.4 5.6 27.7 17.7 42.6 35.9 44.5l1.7 0.2 1.7-0.4c4.9-1.2 9.8-2.8 14.5-4.4 15.5-5.2 25.5-7.9 32.7-2l0.5 0.4 0.4 0.3c1.5 1.4 5.2 10.1 4.2 31.4-1 20.4-6 44.3-14 67.2-13.9 38.9-57.4 130.5-162.3 136.8z m-20.3 325.6H126.8c-0.3-26.2 1.4-100.1 26.6-139.1 18.3-28.3 50.4-34.2 87.5-41 23.4-4.3 47.5-8.8 70.3-19.3 19.4-9 39.7-21.1 58.4-33.3l65 95.3c2.9 4.3 7.5 7.1 12.7 7.7 0.7 0.1 1.5 0.1 2.2 0.1 4.4 0 8.7-1.6 12-4.6l30.5-27.2v161.4z m0.4-188.6h-0.4v0.4l-42.2 37.6-59.1-86.7 48.3-36.2 59.4 79.6-6 5.3z m-49.3-113l-0.1 0.1v-26.2c1.3 0.8 2.5 1.6 3.8 2.4 21.6 13.2 42.3 19.8 61.8 19.8 1.7 0 3.3 0 5-0.1 24.4-1.5 47-7 67.8-16.7l0.7 27.5c-4.8 0.6-9.2 3-12.3 7.2L512.1 712l-68.9-92.3z m453.5 301.6H518.1V747.7l43.6 39.4c3.3 3 7.6 4.6 12.1 4.6 0.7 0 1.4 0 2-0.1 5.1-0.6 9.7-3.3 12.7-7.5l67.3-93.4c19.9 12.3 49 19.8 81.8 28.3 41.9 10.8 89.4 23 118 47.7 43 37 42.5 125.9 41.1 154.6z" fill="#2c2c2c" p-id="808"></path><path d="M574.3 481.1c-13.3-7.9-30.2-9.9-50.2-5.9-2.2 0.4-4 1.2-5.6 1.8-3.9 1.6-8 3.2-20.5-2.6-25.7-12-52.5 6.3-53.6 7l-5.6 3.9 1.6 6.7c4.6 19.1 15.4 34.7 31.1 45 12.4 8.1 27.9 13 43.6 13.6h1.2c24 0 59.8-28.7 65.6-48.3 2.6-8.8-0.2-16.8-7.6-21.2z m-23.4 31c-11.8 11-26.9 18.9-35 18.6-20.5-0.8-44.4-10.9-53.9-36.2 6.7-3.1 17.8-6.5 27.6-2 18.9 8.8 28.7 6.2 36.5 3 0.7-0.3 1.7-0.7 2.1-0.8 5.3-1.1 21.1-4.2 34.3 2.6-1 2.8-4.3 8.1-11.6 14.8z" fill="#2c2c2c" p-id="809"></path></svg>