<?xml version="1.0" standalone="no"?><!DOCTYPE svg PUBLIC "-//W3C//DTD SVG 1.1//EN" "http://www.w3.org/Graphics/SVG/1.1/DTD/svg11.dtd"><svg t="1631177852760" class="icon" viewBox="0 0 1024 1024" version="1.1" xmlns="http://www.w3.org/2000/svg" p-id="1480" xmlns:xlink="http://www.w3.org/1999/xlink" width="200" height="200"><defs><style type="text/css"></style></defs><path d="M290.3 643.5c-8.1-7.4-8.8-20.1-1.4-28.2l10.1-11.1c7.4-8.1 20.1-8.8 28.3-1.4l111 100.9c8.1 7.4 20.9 6.8 28.2-1.4l229.8-253.4c7.4-8.1 20.1-8.8 28.2-1.4l11.1 10.1c8.1 7.4 8.8 20.1 1.4 28.3l-266.8 294c-7.4 8.1-20.1 8.8-28.2 1.4L290.3 643.5z" fill="#2c2c2c" p-id="1481"></path><path d="M740.5 200.9c-11 0-20-9-20-20v-62.5c0-11-9-20-20-20h-15c-11 0-20 9-20 20v62.5c0 11-9 20-20 20h-265c-11 0-20-9-20-20v-62.5c0-11-9-20-20-20h-15c-11 0-20 9-20 20v62.5c0 11-9 20-20 20H118c-11 0-20 9-20 20v687.3c0 11 9 20 20 20h790c11 0 20-9 20-20V220.9c0-11-9-20-20-20H740.5zM873 853.2c0 11-9 20-20 20H173c-11 0-20-9-20-20V275.9c0-11 9-20 20-20h112.5c11 0 20 9 20 20v59.4c0 11 9 20 20 20h15c11 0 20-9 20-20v-59.4c0-11 9-20 20-20h264.9c11 0 20 9 20 20v59.4c0 11 9 20 20 20h15c11 0 20-9 20-20v-59.4c0-11 9-20 20-20H853c11 0 20 9 20 20v577.3z" fill="#2c2c2c" p-id="1482"></path></svg>