<svg width="180px" height="186px" viewBox="0 0 180 186" version="1.1" xmlns="http://www.w3.org/2000/svg" xmlns:xlink="http://www.w3.org/1999/xlink">
    <!-- Generator: Sketch 61.2 (89653) - https://sketch.com -->
    <title>laigu_logo</title>
    <desc>Created with Sketch.</desc>
    <g id="laigu_logo" stroke="none" stroke-width="1" fill="none" fill-rule="evenodd">
        <g>
            <path d="M35.919487,50.8828833 C31.1785339,59.1795624 45.3486758,77.7904318 85.3695684,88.5139977 C125.390461,99.2375635 143.243295,87.8816312 143.608402,79.7380411 C143.973509,71.594451 133.725609,56.816584 96.9103329,46.9519607 C60.0950573,37.0873373 40.6604402,42.5862042 35.919487,50.8828833 Z" id="路径-2" fill="#0044FF" transform="translate(89.329520, 67.281018) rotate(-15.000000) translate(-89.329520, -67.281018) "></path>
            <path d="M64.0863974,40.0234567 C65.5571848,37.4536632 62.8919079,33.8707793 59.4989589,35.7803825 C56.1060099,37.6899857 43.2809031,50.5248108 41.058419,54.3593046 C38.835935,58.1937983 43.6713222,63.4764578 48.1558628,60.2321026 C52.6404034,56.9877473 62.61561,42.5932502 64.0863974,40.0234567 Z" id="路径-10" stroke="#0044FF" stroke-width="6" fill="#FFFFFF" transform="translate(52.500294, 48.241543) rotate(-93.000000) translate(-52.500294, -48.241543) "></path>
            <circle id="椭圆形" fill="#FF8806" transform="translate(75.500000, 65.500000) rotate(-135.000000) translate(-75.500000, -65.500000) " cx="75.5" cy="65.5" r="7.5"></circle>
            <path d="M131.271791,48.3337117 C131.271791,41.0754158 136.169387,25.895258 139.167491,24.3418677 C142.165595,22.7884774 149.712186,25.1858471 151.173406,30.495874 C152.289775,34.5527189 143.665968,47.6892773 137.457427,51.6087825 C135.539574,52.8195394 131.271791,49.588564 131.271791,48.3337117 Z" id="路径-8备份" fill="#FF8806" transform="translate(141.271791, 37.875577) rotate(20.000000) translate(-141.271791, -37.875577) "></path>
            <path d="M123.152691,45.1270304 C119.605025,43.0904552 115.422331,38.1311589 115.610359,36.0639037 C115.798387,33.9966485 119.354588,30.5628955 122.411679,31.2577016 C124.747288,31.7885315 127.649609,37.5304941 127.603704,42.008583 C127.589523,43.3918896 123.76603,45.4791242 123.152691,45.1270304 Z" id="路径-8备份" fill="#FF8806" transform="translate(121.604242, 38.166419) rotate(20.000000) translate(-121.604242, -38.166419) "></path>
            <path d="M112.484382,149.477929 L131.245797,157.655065 C133.270942,158.537722 135.628181,157.611552 136.510837,155.586407 C136.778835,154.97152 136.887903,154.299112 136.828009,153.631039 L135.279119,136.354423 L135.279119,136.354423 L112.484382,149.477929 Z" id="路径-6" fill="#0044FF"></path>
            <path d="M30.6873738,90.9147309 C29.7605549,105.126757 30.8132119,119.246879 38.3998037,133.707664 C45.9863956,148.168448 74.6509722,154.984304 90,154.984304 C105.349028,154.984304 135.418716,148.741461 143.355748,133.707664 C151.29278,118.673866 151.096941,84.6654088 148.955877,81.0911167 C146.814813,77.5168246 142.657974,81.9871352 141.018814,83.361827 C127.638413,94.5833858 110.267137,96.0222824 90,96.0568928 C69.8683986,96.0912718 51.7982567,92.9352679 38.0256212,84.5990299 C35.8623389,83.2896482 31.6141927,76.7027044 30.6873738,90.9147309 Z" id="路径-9" fill="#0044FF"></path>
        </g>
    </g>
</svg>