<?xml version="1.0" standalone="no"?><!DOCTYPE svg PUBLIC "-//W3C//DTD SVG 1.1//EN" "http://www.w3.org/Graphics/SVG/1.1/DTD/svg11.dtd"><svg t="1631870127891" class="icon" viewBox="0 0 1024 1024" version="1.1" xmlns="http://www.w3.org/2000/svg" p-id="1095" xmlns:xlink="http://www.w3.org/1999/xlink" width="200" height="200"><defs><style type="text/css"></style></defs><path d="M877.1 801.8c-20.3-34.7-49.2-65.8-85.9-92.4-47.4-34.3-104.6-58.9-167-72.2 48-22.3 81.3-70.9 81.3-127.2V350.8c6.7 0.4 13.5 0.6 20.3 0.6 4.5 0 9-0.1 13.5-0.3l10.5-0.4 1.8-10.4c0.6-3.4 1.1-6.7 1.5-9.9 14-115.3-68.4-220.5-183.7-234.5-38.2-4.6-76.7 1.2-111.7 16.9-4.8-0.4-9.6-0.6-14.3-0.6-88 0-159.5 71.6-159.5 159.5 0 13 1.6 26 4.7 38.6l2.2 8.7 8.9 1.1c6.2 0.8 12.5 1.3 18.8 1.7V510c0 56.3 33.3 104.9 81.3 127.2-62.4 13.4-119.6 37.9-167 72.2-36.7 26.6-65.6 57.7-85.9 92.4-21.2 36.3-32 75-32 114.9v13H909v-13c0.1-39.9-10.7-78.6-31.9-114.9zM477.2 656.5l13.7 27.6-62.7 72.4-93.1-72.9c42.9-16.7 91-27.5 142-31-0.5 1.2-0.5 2.6 0.1 3.9z m33.7 44.2h4.6l59.5 71-64.1 49.6-62.3-48.8 62.3-71.8z m84.7 55l-60.8-72.5 11.8-26.9c0.6-1.3 0.5-2.6 0-3.7 51.1 3.4 99.2 14.2 142.1 30.9l-93.1 72.2z m-285.7-484c0-73.6 59.9-133.5 133.5-133.5 5 0 10.1 0.3 15.1 0.8l3.7 0.4 3.3-1.6c31.4-14.8 66.2-20.4 100.8-16.2 49 5.9 92.7 30.6 123.1 69.4 30 38.3 43.5 85.9 38.2 134.3-13.4 0.1-26.8-0.7-40-2.3-67.8-8.2-129.7-37.4-179.1-84.4l-8.5-8.1-8.9 7.6c-43.9 37.4-100 58-157.7 58-7.1 0-14.2-0.3-21.3-0.9-1.5-7.8-2.2-15.6-2.2-23.5zM344.4 510V321.9c56.1-2.3 110.2-22.2 154.5-56.7 50.8 45.3 112.9 73.8 180.6 83V510c0 62.9-51.2 114.1-114.1 114.1H458.6c-63 0-114.2-51.2-114.2-114.1z m-203 393.7c5.9-87 70.7-163.1 166.5-208.4l187.9 147.2c4.4 3.5 9.8 5.2 15.1 5.2 5.3 0 10.6-1.7 15-5.1L716 695.3c95.8 45.3 160.6 121.4 166.5 208.4H141.4z" fill="" p-id="1096"></path></svg>