<svg width="156px" height="156px" viewBox="0 0 156 156" version="1.1" xmlns="http://www.w3.org/2000/svg" xmlns:xlink="http://www.w3.org/1999/xlink">
    <title>蓝色-logo</title>
    <g id="蓝色-logo" stroke="none" stroke-width="1" fill="none" fill-rule="evenodd">
        <g>
            <rect id="矩形备份" fill="#FFFFFF" opacity="0" x="0" y="0" width="156" height="156"></rect>
            <g id="编组-8备份" transform="translate(22.000000, 13.000000)" fill="#1880FF">
                <path d="M56.5,0 C87.7040884,0 113,25.2959116 113,56.5 C113,96.711808 81.5845543,130 47,130 C46.0862059,130 45.1767492,129.981711 44.2719867,129.945483 C49.5641227,125.157596 53.9477393,119.415145 57.1400536,112.996102 L56.5,113 C25.2959116,113 0,87.7040884 0,56.5 C0,25.2959116 25.2959116,0 56.5,0 Z M68.5,20 C51.1030304,20 37,34.1030304 37,51.5 C37,59.4650262 39.9562397,66.7395857 44.8313581,72.2863171 L45.1591973,72.6535281 L45.485501,73.0079031 L30.5194678,100.43423 L31.2947071,100.829298 L32.0845353,101.22248 C32.2174141,101.287803 32.3509195,101.353009 32.4850608,101.418079 L33.2976158,101.806719 L34.1258839,102.191187 L34.970315,102.570568 L35.3987322,102.758065 L36.2682509,103.128101 C36.4145988,103.189184 36.561667,103.24996 36.7094649,103.31041 L37.605083,103.669041 C37.755837,103.72811 37.9073394,103.786813 38.0595996,103.845134 L38.982329,104.190302 C45.8167947,106.685549 54.1545885,108.364535 64.7937801,107.603604 C64.7491771,107.773907 64.6999222,107.954065 64.6460793,108.1433 L64.4708511,108.737455 C64.4393738,108.840759 64.4067655,108.946138 64.3730343,109.053495 L64.1572358,109.720578 C64.1190448,109.835453 64.0797469,109.952111 64.0393501,110.070454 L63.7838461,110.799953 C63.6943251,111.049341 63.6004725,111.30469 63.5023523,111.565223 L63.195253,112.36159 C63.1419574,112.49665 63.0876109,112.632811 63.0322215,112.769976 L62.6874348,113.604231 L62.3180037,114.457903 C60.9823153,117.474287 59.200848,120.76162 57.0477645,123.418461 C59.0047741,123.020558 61.5876349,122.038415 64.7963469,120.472034 C87.0741524,110.107363 98.6980212,92.7499795 101.959092,76.3213205 C104.461172,63.716317 103.04942,51.559273 99.6007694,43.0221962 C97.8604713,38.7141169 94.0482344,32.8430271 91.4977554,30.0911787 C85.7444355,23.8836135 77.6312038,20 68.5,20 Z M66,51 L55.877604,73 C47.851117,69.2133002 42.2125822,60.8129345 42,51 L66,51 Z M75.5,39 C77.4329966,39 79,40.5670034 79,42.5 C79,44.4329966 77.4329966,46 75.5,46 C73.5670034,46 72,44.4329966 72,42.5 C72,40.5670034 73.5670034,39 75.5,39 Z" id="形状结合"></path>
            </g>
        </g>
    </g>
</svg>