<?xml version="1.0" standalone="no"?><!DOCTYPE svg PUBLIC "-//W3C//DTD SVG 1.1//EN" "http://www.w3.org/Graphics/SVG/1.1/DTD/svg11.dtd"><svg t="1631177788696" class="icon" viewBox="0 0 1024 1024" version="1.1" xmlns="http://www.w3.org/2000/svg" p-id="807" xmlns:xlink="http://www.w3.org/1999/xlink" width="200" height="200"><defs><style type="text/css"></style></defs><path d="M574.29996 1023.99934c-14.099991 0.1-25.699983-11.199993-25.799984-25.399984-0.1-6.899996 2.699998-13.499991 7.599996-18.399988l67.599956-67.399956H135.800242c-58.999962 0-106.899931-47.799969-106.999931-106.799931V218.299859c0.1-58.999962 47.999969-106.799931 106.999931-106.799931h71.099955c14.199991-0.3 25.999983 11.099993 26.199983 25.299984 0.3 14.199991-11.099993 25.999983-25.299984 26.199983h-71.999954c-30.69998 0-55.499964 24.799984-55.599964 55.499964v587.599621c0.1 30.69998 24.999984 55.499964 55.599964 55.499965h487.799686L555.999972 794.199488c-10.199993-9.799994-10.399993-26.099983-0.6-36.199977 9.799994-10.199993 26.099983-10.399993 36.199977-0.599999l0.599999 0.599999L703.999876 868.89944c4.799997 4.799997 7.499995 11.399993 7.599995 18.199988 0 6.799996-2.699998 13.399991-7.599995 18.199989l-111.399928 111.199928c-4.899997 4.799997-11.499993 7.499995-18.299988 7.499995z m313.899798-110.699929h-71.099955c-14.199991 0.3-25.999983-11.099993-26.199983-25.299983s11.099993-25.999983 25.299984-26.199983h71.999954c30.59998 0 55.499964-24.699984 55.799964-55.299965V218.699859c-0.1-30.69998-24.999984-55.499964-55.599965-55.499964H400.600072l67.599956 67.399956c9.999994 9.999994 9.999994 26.299983-0.1 36.299977-4.799997 4.799997-11.399993 7.499995-18.199988 7.499995-6.799996 0-13.399991-2.699998-18.299988-7.499995L320.200124 155.6999c-4.799997-4.799997-7.499995-11.399993-7.599995-18.199989 0-6.799996 2.699998-13.399991 7.599995-18.199988L431.600052 8.099995c9.699994-10.299993 25.899983-10.799993 36.199976-1.1 10.299993 9.699994 10.799993 25.899983 1.1 36.199977-0.4 0.4-0.7 0.799999-1.1 1.099999l-67.499956 67.399957h487.799686c58.999962 0 106.899931 47.699969 106.999931 106.799931v587.999621c0 58.999962-47.899969 106.799931-106.899931 106.799931z m-234.999849-368.099762c-18.099988 0-32.799979-14.79999-32.799979-32.899979 0-18.099988 14.79999-32.799979 32.899979-32.799979 18.099988 0 32.799979 14.699991 32.799979 32.899979 0 18.099988-14.699991 32.799979-32.899979 32.799979z m-141.199909 0c-18.099988 0-32.799979-14.79999-32.799979-32.899979 0-18.099988 14.79999-32.799979 32.899979-32.799979 18.099988 0 32.799979 14.699991 32.799979 32.899979 0 18.099988-14.79999 32.799979-32.899979 32.799979z m-141.199909 0c-18.099988 0-32.799979-14.79999-32.799979-32.899979 0-18.099988 14.79999-32.799979 32.899979-32.799979 18.099988 0 32.799979 14.699991 32.799979 32.899979 0 18.099988-14.79999 32.799979-32.899979 32.799979z" p-id="808"></path></svg>